<?xml version="1.0" encoding="utf-8"?>
<!-- Generator: Adobe Illustrator 16.0.0, SVG Export Plug-In . SVG Version: 6.00 Build 0)  -->
<!DOCTYPE svg PUBLIC "-//W3C//DTD SVG 1.1//EN" "http://www.w3.org/Graphics/SVG/1.1/DTD/svg11.dtd">
<svg version="1.1" id="Layer_1" xmlns="http://www.w3.org/2000/svg" xmlns:xlink="http://www.w3.org/1999/xlink" x="0px" y="0px"
	 width="79.461px" height="79.332px" viewBox="0 0 79.461 79.332" enable-background="new 0 0 79.461 79.332" xml:space="preserve">
<g>
	<path fill-rule="evenodd" clip-rule="evenodd" fill="#FFFFFF" d="M39.815,0.028c20.138-0.671,39.691,16.478,39.646,39.555
		C79.416,61.671,61.729,79.37,39.654,79.332C17.714,79.294-0.024,61.604,0,39.663C0.027,15.526,20.402-0.773,39.815,0.028z
		 M55.14,23.302c-0.515-0.652-0.817-1.135-1.214-1.522c-8.83-8.621-22.667-7.155-29.522,3.119
		c-5.701,8.542-5.534,22.266,0.39,30.659c2.569,3.638,5.919,6.179,10.226,7.522c1.854,0.579,2.909,0.327,3.764-1.539
		c4.751-10.378,9.567-20.728,14.447-31.046c0.585-1.236,1.693-2.226,2.559-3.33c0.846,1.116,1.942,2.119,2.497,3.364
		c3.931,8.816,7.749,17.682,11.728,26.819c0.269-0.407,0.412-0.594,0.522-0.798c0.303-0.562,0.622-1.118,0.88-1.701
		c5.66-12.763,4.76-25.068-3.618-36.233C59.355,7.368,47.678,2.855,33.789,5.025C19.172,7.308,7.507,19.159,5.081,33.567
		C2.597,48.318,9.455,62.87,22.347,70.205c12.936,7.36,28.925,5.823,40.288-3.871c3.272-2.792,3.271-2.792,1.629-6.673
		c-0.498-1.176-1.191-2.313-1.449-3.54c-1.019-4.865-3.802-6.475-8.775-6.068c-5.606,0.458-5.688,0.044-7.659,5.298
		c-0.926,2.469-1.623,5.022-2.424,7.538c0.255,0.237,0.509,0.475,0.764,0.712c3.798-1.712,7.597-3.425,11.32-5.104
		c0.287,2.992,0.247,3.23-2.422,4.7c-9.645,5.312-19.362,5.378-28.615-0.619c-9.438-6.118-13.584-15.224-12.17-26.339
		c1.366-10.731,7.532-18.257,17.659-21.99c9.662-3.561,18.647-1.689,26.781,4.702C56.556,20.414,55.933,21.684,55.14,23.302z
		 M54.439,35.865c-1.672,4.011-3.052,7.32-4.496,10.786c3.185,0,5.905,0,8.873,0C57.38,43.111,56.05,39.832,54.439,35.865z"/>
	<path fill-rule="evenodd" clip-rule="evenodd" fill="#FFFFFF" d="M38.966,30.887c0-3.78,0-7.491,0-11.376c1.205,0,2.437,0,3.973,0
		c0,8.917,0,17.884,0,26.984c-1.032,0-2.283,0-3.673,0c-0.076-0.665-0.154-1.348-0.244-2.139c-0.212,0.093-0.436,0.125-0.553,0.254
		c-2.094,2.318-4.651,2.981-7.596,2.054c-2.938-0.925-4.515-3.202-4.665-6.059c-0.133-2.535-0.085-5.382,0.936-7.61
		C29.215,28.477,33.769,27.846,38.966,30.887z M29.711,37.734c0.276,1.534,0.197,3.05,0.841,4.14c0.69,1.167,1.92,2.358,3.167,2.77
		c1.724,0.568,3.332-0.413,4.148-2.088c1.391-2.855,1.785-5.944,0.297-8.771c-0.611-1.161-2.424-2.321-3.695-2.326
		s-2.881,1.185-3.724,2.313C29.966,34.816,30.004,36.472,29.711,37.734z"/>
</g>
</svg>
