<?xml version="1.0" encoding="utf-8"?>
<!-- Generator: Adobe Illustrator 16.0.0, SVG Export Plug-In . SVG Version: 6.00 Build 0)  -->
<!DOCTYPE svg PUBLIC "-//W3C//DTD SVG 1.1//EN" "http://www.w3.org/Graphics/SVG/1.1/DTD/svg11.dtd">
<svg version="1.1" id="Capa_1" xmlns="http://www.w3.org/2000/svg" xmlns:xlink="http://www.w3.org/1999/xlink" x="0px" y="0px"
	 width="100px" height="100.004px" viewBox="-25.174 -25.177 100 100.004" enable-background="new -25.174 -25.177 100 100.004"
	 xml:space="preserve">
<g>
	<g>
		<g>
			<path d="M24.824,34.835c5.517,0,10.013-4.488,10.013-10.009c0-2.18-0.712-4.191-1.892-5.834
				c-1.819-2.521-4.775-4.175-8.115-4.175c-3.342,0-6.296,1.651-8.119,4.173c-1.184,1.643-1.89,3.654-1.892,5.834
				C14.813,30.344,19.305,34.835,24.824,34.835z"/>
			<polygon points="46.683,12.581 46.683,4.19 46.683,2.941 45.428,2.945 37.042,2.972 37.073,12.614 			"/>
			<path d="M24.826-25.174c-27.568,0-50,22.431-50,50c0,27.568,22.432,50,50,50s50-22.432,50-50
				C74.826-2.743,52.398-25.174,24.826-25.174z M53.261,18.992v23.281c0,6.063-4.931,10.992-10.99,10.992H7.381
				c-6.062,0-10.99-4.929-10.99-10.992V18.992V7.383c0-6.062,4.929-10.991,10.99-10.991h34.889c6.062,0,10.992,4.929,10.992,10.991
				V18.992z"/>
			<path d="M40.38,24.826c0,8.573-6.977,15.554-15.554,15.554S9.274,33.399,9.274,24.826c0-2.062,0.411-4.034,1.143-5.834H1.928
				v23.281c0,3.01,2.442,5.446,5.45,5.446h34.889c3.004,0,5.45-2.437,5.45-5.446V18.992h-8.492
				C39.963,20.792,40.38,22.764,40.38,24.826z"/>
		</g>
	</g>
</g>
</svg>
