<?xml version="1.0" encoding="utf-8"?>
<!-- Generator: Adobe Illustrator 16.0.0, SVG Export Plug-In . SVG Version: 6.00 Build 0)  -->
<!DOCTYPE svg PUBLIC "-//W3C//DTD SVG 1.1//EN" "http://www.w3.org/Graphics/SVG/1.1/DTD/svg11.dtd">
<svg version="1.1" id="Isolation_Mode" xmlns="http://www.w3.org/2000/svg" xmlns:xlink="http://www.w3.org/1999/xlink" x="0px"
	 y="0px" width="750px" height="217.021px" viewBox="-300 -86.809 750 217.021" enable-background="new -300 -86.809 750 217.021"
	 xml:space="preserve">
<g>
	<path fill="#D14629" d="M-140.649,6.072h11.685v-39.075h10.344l34.817,63.432h14.243l-28.855-50.153
		c-3.04-5.234-6.934-11.321-9.128-14.976c9.858-3.289,16.069-9.858,16.069-21.423c0-14.976-9.495-23.13-24.106-23.13h-26.169
		c0.73,5.234,1.101,10.103,1.101,17.893V6.072L-140.649,6.072z M-103.035-56.132c0,7.788-5.725,13.022-15.095,13.022h-10.835
		v-25.923h12.661C-108.516-69.033-103.035-64.899-103.035-56.132L-103.035-56.132z"/>
</g>
</svg>
