<?xml version="1.0" encoding="utf-8"?>
<!-- Generator: Adobe Illustrator 16.0.0, SVG Export Plug-In . SVG Version: 6.00 Build 0)  -->
<!DOCTYPE svg PUBLIC "-//W3C//DTD SVG 1.1//EN" "http://www.w3.org/Graphics/SVG/1.1/DTD/svg11.dtd">
<svg version="1.1" id="Isolation_Mode" xmlns="http://www.w3.org/2000/svg" xmlns:xlink="http://www.w3.org/1999/xlink" x="0px"
	 y="0px" width="750px" height="217.021px" viewBox="-300 -86.809 750 217.021" enable-background="new -300 -86.809 750 217.021"
	 xml:space="preserve">
<g>
	<path fill="#D14629" d="M-140.649,6.072h11.685v-39.075h10.344l34.817,63.432h14.243l-28.855-50.153
		c-3.04-5.234-6.934-11.321-9.128-14.976c9.858-3.289,16.069-9.858,16.069-21.423c0-14.976-9.495-23.13-24.106-23.13h-26.169
		c0.73,5.234,1.101,10.103,1.101,17.893V6.072L-140.649,6.072z M-208.574,12.408c-10.471,5.354-18.506,7.544-29.946,7.544
		c-26.541,0-48.083-16.064-48.083-46.621c0-32.258,22.273-48.694,46.379-48.694c10.955,0,19.844,2.19,29.46,7.305l1.46-12.905
		c-8.772-3.655-17.9-5.845-30.925-5.845c-33.96,0-59.771,24.834-59.771,60.134c0,33.477,23.86,58.067,61.475,58.067
		c10.347,0,21.06-1.951,31.89-7.181L-208.574,12.408L-208.574,12.408z M-169.746-10.239c2.07,4.871,3.286,8.154,5.847,16.311h13.755
		l-36.887-89.597l-36.638,89.597h13.269c2.07-7.427,4.016-12.415,6.086-18.142l1.094-2.92h31.65L-169.746-10.239L-169.746-10.239z
		 M-175.835-24.968h-23.125l6.694-17.532c2.19-5.598,4.141-10.955,4.871-13.264c1.34,3.894,2.561,7.424,4.871,13.264
		L-175.835-24.968L-175.835-24.968z M-103.035-56.132c0,7.788-5.725,13.022-15.095,13.022h-10.835v-25.923h12.661
		C-108.516-69.033-103.035-64.899-103.035-56.132L-103.035-56.132z M4.456-79.265c0.854,5.481,1.34,10.471,1.34,17.896V6.072H16.75
		v-54.045c0-6.211-0.12-9.495-0.247-12.661c0.122,0,0.122-0.12,0.247-0.12L76.521,8.882v-88.147H65.686v37.861
		c0,8.154,0.244,15.22,0.364,19.355c-0.12,0-0.12,0.12-0.239,0.12c-2.681-3.53-5.356-7.061-9.614-11.931L16.75-79.265H4.456
		L4.456-79.265z M134.219-55.649c0,10.105-5.103,15.825-16.069,15.825h-2.798v-29.939h3.164
		C128.867-69.763,134.219-65.019,134.219-55.649L134.219-55.649z M105.127-30.688h13.145c18.75,0,26.909-10.225,26.909-24.956
		c0-12.905-7.554-23.613-25.688-23.613h-15.215c0.605,4.268,0.85,7.188,0.85,11.199V-30.688L105.127-30.688z M157.104-54.667h8.77
		l9.98-24.59H163.56L157.104-54.667L157.104-54.667z M303.438-10.483c-7.676,4.749-12.539,6.694-22.163,6.694
		c-16.919,0-31.772-10.596-31.772-31.411c0-22.764,15.342-34.084,31.172-34.084c8.027,0,14.478,2.07,21.782,6.331l2.314-12.415
		c-6.816-3.04-13.999-4.751-23.618-4.751c-25.195,0-44.561,18.506-44.561,44.919c0,24.346,18.633,42.246,44.561,42.246
		c9.375,0,17.168-1.465,25.313-6.331L303.438-10.483L303.438-10.483z M317.803-79.265c0.732,5.237,1.099,10.227,1.099,18.142V6.072
		h11.929v-39.561h42.241V6.072H385v-85.337h-11.929v35.547H330.83v-35.547H317.803L317.803-79.265z M402.764-79.265
		c0.61,5.237,0.977,10.227,0.977,18.142V6.072h45.039L450-4.028h-34.209v-29.46h26.416l0.972-10.225h-27.397v-25.32h31.289
		l1.338-10.225L402.764-79.265L402.764-79.265z M-24.27-10.239c2.07,4.871,3.286,8.154,5.84,16.311h13.755L-41.56-83.525
		L-78.206,6.072h13.271c2.068-7.427,4.014-12.415,6.084-18.142l1.096-2.92h31.648L-24.27-10.239L-24.27-10.239z M-30.359-24.968
		h-23.132c3.896-9.985,10.471-27.39,11.687-30.801c1.218,3.894,2.434,7.424,4.749,13.264L-30.359-24.968L-30.359-24.968z
		 M222.598,8.631c3.179,7.91,5.483,14.121,7.92,21.665h13.638l-46.87-113.821L160.64,6.072h13.267
		c2.07-7.427,4.023-12.415,6.089-18.142l1.099-2.92h31.65L222.598,8.631L222.598,8.631z M208.477-24.968h-23.125
		c4.019-10.352,10.352-27.39,11.563-30.801c1.338,3.894,2.559,7.424,4.873,13.264L208.477-24.968L208.477-24.968z"/>
	<path fill="#D14629" d="M17.036,100.145H-3.589l-0.737,5.728H10v14.487c-3.23,1.65-6.294,2.48-11.179,2.48
		c-11.675,0-21.697-8.027-21.697-22.778c0-15.981,10.845-24.18,22.112-24.18c5.63,0,9.939,1.401,14.495,4.058l1.323-7.285
		c-4.304-1.826-8.943-2.983-15.488-2.983c-16.98,0-30.066,12.593-30.066,30.391c0,16.484,12.09,28.989,29.236,28.989
		c6.294,0,11.35-0.996,17.891-4.307v-12.827C16.621,106.771,16.785,103.465,17.036,100.145L17.036,100.145z M53.425,109.168v-1.904
		c0-10.762-6.375-15.566-13.835-15.566c-9.275,0-16.394,7.617-16.394,19.131c0,12.002,7.375,18.223,16.895,18.223
		c4.304,0,8.694-1.406,12.175-5.137l-2.651-4.297c-2.815,2.646-5.964,4.141-9.604,4.141c-5.63,0-10.85-3.892-10.85-13.75v-0.83
		L53.425,109.168L53.425,109.168z M47.124,104.539H30.066c1.245-4.478,4.385-7.705,9.438-7.705
		C42.991,96.834,46.465,99.148,47.124,104.539L47.124,104.539z M87.979,104.363c0-8.779-4.551-12.666-11.18-12.666
		c-5.134,0-8.859,3.149-11.098,5.879l-0.166-0.088l0.415-4.795l-6.375,1.074l0.33,8.857v25.752h5.964v-27.251
		c2.981-2.817,5.547-4.058,8.777-4.058c4.797,0,7.375,2.314,7.375,8.281v23.022h5.957V104.363L87.979,104.363z M124.873,109.168
		v-1.904c0-10.762-6.372-15.566-13.833-15.566c-9.272,0-16.401,7.617-16.401,19.131c0,12.002,7.373,18.223,16.904,18.223
		c4.302,0,8.691-1.406,12.178-5.137l-2.651-4.297c-2.817,2.646-5.952,4.141-9.604,4.141c-5.635,0-10.85-3.892-10.85-13.75v-0.83
		L124.873,109.168L124.873,109.168z M118.574,104.539h-17.061c1.25-4.478,4.395-7.705,9.443-7.705
		C114.434,96.834,117.915,99.148,118.574,104.539L118.574,104.539z M107.979,70.33h-7.124l7.866,16.074h4.224L107.979,70.33
		L107.979,70.33z M135.488,100.232c-0.918-2.241-1.743-4.395-2.656-7.373h-6.865l15.977,37.354l15.654-37.354h-6.621
		c-0.742,2.725-1.655,5.537-2.734,8.193l-3.73,9.365c-1.152,2.808-1.646,4.468-2.314,6.211h-0.161
		c-0.669-1.987-1.406-3.564-2.397-6.138L135.488,100.232L135.488,100.232z M188.799,109.168v-1.904
		c0-10.762-6.377-15.566-13.838-15.566c-9.277,0-16.396,7.617-16.396,19.131c0,12.002,7.373,18.223,16.895,18.223
		c4.307,0,8.696-1.406,12.178-5.137l-2.646-4.297c-2.813,2.646-5.957,4.141-9.604,4.141c-5.63,0-10.85-3.892-10.85-13.75v-0.83
		L188.799,109.168L188.799,109.168z M182.5,104.539h-17.061c1.245-4.478,4.39-7.705,9.443-7.705
		C178.354,96.834,181.841,99.148,182.5,104.539L182.5,104.539z"/>
</g>
</svg>
