<?xml version="1.0" encoding="utf-8"?>
<!-- Generator: Adobe Illustrator 16.0.0, SVG Export Plug-In . SVG Version: 6.00 Build 0)  -->
<!DOCTYPE svg PUBLIC "-//W3C//DTD SVG 1.1//EN" "http://www.w3.org/Graphics/SVG/1.1/DTD/svg11.dtd">
<svg version="1.1" id="Isolation_Mode" xmlns="http://www.w3.org/2000/svg" xmlns:xlink="http://www.w3.org/1999/xlink" x="0px"
	 y="0px" width="750px" height="217.021px" viewBox="-300 -86.809 750 217.021" enable-background="new -300 -86.809 750 217.021"
	 xml:space="preserve">
<g>
	<path fill="#D14629" d="M303.438-10.483c-7.676,4.749-12.539,6.694-22.163,6.694c-16.919,0-31.772-10.596-31.772-31.411
		c0-22.764,15.342-34.084,31.172-34.084c8.027,0,14.478,2.07,21.782,6.331l2.314-12.415c-6.816-3.04-13.999-4.751-23.618-4.751
		c-25.195,0-44.561,18.506-44.561,44.919c0,24.346,18.633,42.246,44.561,42.246c9.375,0,17.168-1.465,25.313-6.331L303.438-10.483
		L303.438-10.483z"/>
</g>
</svg>
