<?xml version="1.0" encoding="utf-8"?>
<!-- Generator: Adobe Illustrator 16.0.0, SVG Export Plug-In . SVG Version: 6.00 Build 0)  -->
<!DOCTYPE svg PUBLIC "-//W3C//DTD SVG 1.1//EN" "http://www.w3.org/Graphics/SVG/1.1/DTD/svg11.dtd">
<svg version="1.1" id="Isolation_Mode" xmlns="http://www.w3.org/2000/svg" xmlns:xlink="http://www.w3.org/1999/xlink" x="0px"
	 y="0px" width="750px" height="217.021px" viewBox="-300 -86.809 750 217.021" enable-background="new -300 -86.809 750 217.021"
	 xml:space="preserve">
<g>
	<path fill="#D14629" d="M17.036,100.145H-3.589l-0.737,5.728H10v14.487c-3.23,1.65-6.294,2.48-11.179,2.48
		c-11.675,0-21.697-8.027-21.697-22.778c0-15.981,10.845-24.18,22.112-24.18c5.63,0,9.939,1.401,14.495,4.058l1.323-7.285
		c-4.304-1.826-8.943-2.983-15.488-2.983c-16.98,0-30.066,12.593-30.066,30.391c0,16.484,12.09,28.989,29.236,28.989
		c6.294,0,11.35-0.996,17.891-4.307v-12.827C16.621,106.771,16.785,103.465,17.036,100.145L17.036,100.145z M53.425,109.168v-1.904
		c0-10.762-6.375-15.566-13.835-15.566c-9.275,0-16.394,7.617-16.394,19.131c0,12.002,7.375,18.223,16.895,18.223
		c4.304,0,8.694-1.406,12.175-5.137l-2.651-4.297c-2.815,2.646-5.964,4.141-9.604,4.141c-5.63,0-10.85-3.892-10.85-13.75v-0.83
		L53.425,109.168L53.425,109.168z M47.124,104.539H30.066c1.245-4.478,4.385-7.705,9.438-7.705
		C42.991,96.834,46.465,99.148,47.124,104.539L47.124,104.539z M87.979,104.363c0-8.779-4.551-12.666-11.18-12.666
		c-5.134,0-8.859,3.149-11.098,5.879l-0.166-0.088l0.415-4.795l-6.375,1.074l0.33,8.857v25.752h5.964v-27.251
		c2.981-2.817,5.547-4.058,8.777-4.058c4.797,0,7.375,2.314,7.375,8.281v23.022h5.957V104.363L87.979,104.363z M124.873,109.168
		v-1.904c0-10.762-6.372-15.566-13.833-15.566c-9.272,0-16.401,7.617-16.401,19.131c0,12.002,7.373,18.223,16.904,18.223
		c4.302,0,8.691-1.406,12.178-5.137l-2.651-4.297c-2.817,2.646-5.952,4.141-9.604,4.141c-5.635,0-10.85-3.892-10.85-13.75v-0.83
		L124.873,109.168L124.873,109.168z M118.574,104.539h-17.061c1.25-4.478,4.395-7.705,9.443-7.705
		C114.434,96.834,117.915,99.148,118.574,104.539L118.574,104.539z M107.979,70.33h-7.124l7.866,16.074h4.224L107.979,70.33
		L107.979,70.33z M135.488,100.232c-0.918-2.241-1.743-4.395-2.656-7.373h-6.865l15.977,37.354l15.654-37.354h-6.621
		c-0.742,2.725-1.655,5.537-2.734,8.193l-3.73,9.365c-1.152,2.808-1.646,4.468-2.314,6.211h-0.161
		c-0.669-1.987-1.406-3.564-2.397-6.138L135.488,100.232L135.488,100.232z M188.799,109.168v-1.904
		c0-10.762-6.377-15.566-13.838-15.566c-9.277,0-16.396,7.617-16.396,19.131c0,12.002,7.373,18.223,16.895,18.223
		c4.307,0,8.696-1.406,12.178-5.137l-2.646-4.297c-2.813,2.646-5.957,4.141-9.604,4.141c-5.63,0-10.85-3.892-10.85-13.75v-0.83
		L188.799,109.168L188.799,109.168z M182.5,104.539h-17.061c1.245-4.478,4.39-7.705,9.443-7.705
		C178.354,96.834,181.841,99.148,182.5,104.539L182.5,104.539z"/>
</g>
</svg>
