<?xml version="1.0" encoding="utf-8"?>
<!-- Generator: Adobe Illustrator 16.0.0, SVG Export Plug-In . SVG Version: 6.00 Build 0)  -->
<!DOCTYPE svg PUBLIC "-//W3C//DTD SVG 1.1//EN" "http://www.w3.org/Graphics/SVG/1.1/DTD/svg11.dtd">
<svg version="1.1" id="Isolation_Mode" xmlns="http://www.w3.org/2000/svg" xmlns:xlink="http://www.w3.org/1999/xlink" x="0px"
	 y="0px" width="150px" height="47px" viewBox="0 0 150 47" enable-background="new 0 0 150 47" xml:space="preserve">
<g>
	<path fill="#D14629" d="M31.87,18.576h2.337v-7.815h2.069l6.963,12.687h2.849l-5.771-10.031c-0.608-1.047-1.387-2.264-1.826-2.995
		c1.972-0.658,3.214-1.972,3.214-4.285c0-2.995-1.899-4.626-4.821-4.626H31.65c0.146,1.047,0.22,2.021,0.22,3.579V18.576
		L31.87,18.576z M18.285,19.843c-2.094,1.071-3.701,1.509-5.989,1.509c-5.308,0-9.617-3.213-9.617-9.324
		c0-6.452,4.455-9.739,9.276-9.739c2.191,0,3.969,0.438,5.892,1.461l0.292-2.581C16.385,0.438,14.559,0,11.954,0
		C5.162,0,0,4.967,0,12.027C0,18.722,4.772,23.64,12.295,23.64c2.069,0,4.212-0.39,6.378-1.436L18.285,19.843L18.285,19.843z
		 M26.051,15.314c0.414,0.974,0.657,1.631,1.169,3.262h2.751L22.594,0.657l-7.328,17.919h2.654c0.414-1.485,0.803-2.483,1.217-3.628
		l0.219-0.584h6.33L26.051,15.314L26.051,15.314z M24.833,12.368h-4.625l1.339-3.506c0.438-1.12,0.828-2.191,0.974-2.653
		c0.268,0.779,0.512,1.485,0.974,2.653L24.833,12.368L24.833,12.368z M39.393,6.135c0,1.558-1.145,2.605-3.019,2.605h-2.167V3.555
		h2.532C38.297,3.555,39.393,4.382,39.393,6.135L39.393,6.135z M60.891,1.509c0.171,1.096,0.268,2.094,0.268,3.579v13.488h2.191
		V7.767c0-1.242-0.024-1.899-0.049-2.532c0.024,0,0.024-0.024,0.049-0.024l11.954,13.927V1.509h-2.167v7.572
		c0,1.631,0.049,3.044,0.073,3.871c-0.024,0-0.024,0.024-0.048,0.024c-0.536-0.706-1.071-1.412-1.923-2.386L63.35,1.509H60.891
		L60.891,1.509z M86.844,6.232c0,2.021-1.021,3.165-3.214,3.165h-0.56V3.409h0.633C85.773,3.409,86.844,4.358,86.844,6.232
		L86.844,6.232z M81.025,11.224h2.629c3.75,0,5.382-2.045,5.382-4.991c0-2.581-1.511-4.723-5.138-4.723h-3.043
		c0.121,0.854,0.17,1.438,0.17,2.24V11.224L81.025,11.224z M91.421,6.428h1.754l1.996-4.918h-2.459L91.421,6.428L91.421,6.428z
		 M120.688,15.265c-1.535,0.95-2.508,1.339-4.433,1.339c-3.384,0-6.354-2.119-6.354-6.282c0-4.553,3.068-6.817,6.234-6.817
		c1.605,0,2.895,0.414,4.356,1.266l0.463-2.483c-1.363-0.608-2.8-0.95-4.724-0.95c-5.039,0-8.912,3.701-8.912,8.984
		c0,4.869,3.727,8.449,8.912,8.449c1.875,0,3.434-0.293,5.063-1.266L120.688,15.265L120.688,15.265z M123.561,1.509
		c0.146,1.047,0.219,2.045,0.219,3.628v13.439h2.386v-7.912h8.448v7.912h2.386V1.509h-2.386v7.109h-8.448V1.509H123.561
		L123.561,1.509z M140.553,1.509c0.122,1.047,0.195,2.045,0.195,3.628v13.439h9.008l0.244-2.02h-6.842v-5.892h5.283l0.195-2.045
		h-5.48V3.555h6.258l0.268-2.045L140.553,1.509L140.553,1.509z M55.146,15.314c0.414,0.974,0.657,1.631,1.168,3.262h2.751
		L51.688,0.657l-7.329,17.919h2.654c0.414-1.485,0.803-2.483,1.217-3.628l0.219-0.584h6.33L55.146,15.314L55.146,15.314z
		 M53.928,12.368h-4.626c0.779-1.997,2.094-5.478,2.337-6.16c0.244,0.779,0.487,1.485,0.95,2.653L53.928,12.368L53.928,12.368z
		 M104.52,19.088c0.635,1.582,1.096,2.824,1.584,4.333h2.727L99.457,0.657l-7.329,17.919h2.653c0.414-1.485,0.805-2.483,1.218-3.628
		l0.22-0.584h6.33L104.52,19.088L104.52,19.088z M101.695,12.368H97.07c0.804-2.07,2.07-5.478,2.313-6.16
		c0.268,0.779,0.512,1.485,0.975,2.653L101.695,12.368L101.695,12.368z"/>
	<path fill="#D14629" d="M63.407,37.391h-4.125l-0.147,1.145h2.865v2.898c-0.646,0.33-1.259,0.496-2.236,0.496
		c-2.335,0-4.339-1.606-4.339-4.556c0-3.196,2.169-4.836,4.422-4.836c1.126,0,1.988,0.28,2.899,0.812l0.265-1.457
		c-0.861-0.365-1.789-0.597-3.098-0.597c-3.396,0-6.013,2.519-6.013,6.078c0,3.297,2.418,5.798,5.847,5.798
		c1.259,0,2.27-0.199,3.578-0.861v-2.566C63.324,38.716,63.357,38.054,63.407,37.391L63.407,37.391z M70.685,39.196v-0.382
		c0-2.152-1.275-3.113-2.767-3.113c-1.855,0-3.279,1.523-3.279,3.826c0,2.401,1.475,3.645,3.379,3.645
		c0.861,0,1.739-0.281,2.435-1.027l-0.53-0.86c-0.563,0.53-1.193,0.829-1.921,0.829c-1.126,0-2.17-0.779-2.17-2.75v-0.166
		L70.685,39.196L70.685,39.196z M69.425,38.27h-3.412c0.249-0.896,0.877-1.541,1.888-1.541
		C68.598,36.729,69.293,37.191,69.425,38.27L69.425,38.27z M77.596,38.234c0-1.756-0.91-2.533-2.236-2.533
		c-1.027,0-1.772,0.63-2.22,1.176l-0.033-0.018L73.19,35.9l-1.275,0.215l0.066,1.771v5.151h1.193v-5.45
		c0.596-0.563,1.109-0.811,1.755-0.811c0.959,0,1.475,0.463,1.475,1.656v4.604h1.191V38.234L77.596,38.234z M84.975,39.196v-0.382
		c0-2.152-1.275-3.113-2.767-3.113c-1.854,0-3.28,1.523-3.28,3.826c0,2.401,1.475,3.645,3.381,3.645c0.86,0,1.738-0.281,2.435-1.027
		l-0.53-0.86c-0.563,0.53-1.191,0.829-1.921,0.829c-1.127,0-2.17-0.779-2.17-2.75v-0.166L84.975,39.196L84.975,39.196z
		 M83.715,38.27h-3.412c0.25-0.896,0.879-1.541,1.889-1.541C82.887,36.729,83.583,37.191,83.715,38.27L83.715,38.27z M81.596,31.428
		h-1.425l1.573,3.215h0.845L81.596,31.428L81.596,31.428z M87.098,37.408c-0.184-0.448-0.349-0.879-0.531-1.475h-1.373l3.195,7.471
		l3.131-7.471h-1.324c-0.149,0.545-0.332,1.108-0.547,1.64l-0.746,1.872c-0.231,0.562-0.33,0.894-0.463,1.242h-0.033
		c-0.133-0.397-0.281-0.713-0.479-1.227L87.098,37.408L87.098,37.408z M97.76,39.196v-0.382c0-2.152-1.275-3.113-2.768-3.113
		c-1.855,0-3.279,1.523-3.279,3.826c0,2.401,1.475,3.645,3.379,3.645c0.861,0,1.739-0.281,2.436-1.027l-0.53-0.86
		c-0.563,0.53-1.192,0.829-1.921,0.829c-1.126,0-2.17-0.779-2.17-2.75v-0.166L97.76,39.196L97.76,39.196z M96.5,38.27h-3.412
		c0.249-0.896,0.878-1.541,1.889-1.541C95.671,36.729,96.368,37.191,96.5,38.27L96.5,38.27z"/>
</g>
</svg>
