<?xml version="1.0" encoding="utf-8"?>
<!-- Generator: Adobe Illustrator 16.0.0, SVG Export Plug-In . SVG Version: 6.00 Build 0)  -->
<!DOCTYPE svg PUBLIC "-//W3C//DTD SVG 1.1//EN" "http://www.w3.org/Graphics/SVG/1.1/DTD/svg11.dtd">
<svg version="1.1" id="Isolation_Mode" xmlns="http://www.w3.org/2000/svg" xmlns:xlink="http://www.w3.org/1999/xlink" x="0px"
	 y="0px" width="750px" height="217.021px" viewBox="-300 -86.809 750 217.021" enable-background="new -300 -86.809 750 217.021"
	 xml:space="preserve">
<g>
	<path fill="#D14629" d="M-208.574,12.408c-10.471,5.354-18.506,7.544-29.946,7.544c-26.541,0-48.083-16.064-48.083-46.621
		c0-32.258,22.273-48.694,46.379-48.694c10.955,0,19.844,2.19,29.46,7.305l1.46-12.905c-8.772-3.655-17.9-5.845-30.925-5.845
		c-33.96,0-59.771,24.834-59.771,60.134c0,33.477,23.86,58.067,61.475,58.067c10.347,0,21.06-1.951,31.89-7.181L-208.574,12.408
		L-208.574,12.408z"/>
</g>
</svg>
